<svg xmlns="http://www.w3.org/2000/svg" fill="none" viewBox="0 0 259 258" height="258" width="259">
<g clip-path="url(#clip0_1274_59311)">
<path fill="#00A05E" d="M0.324799 56C0.324799 25.0721 25.3969 0 56.3248 0L202.324 0C233.252 0 258.324 25.0721 258.324 56V115.562V201.999C258.324 232.927 233.252 258 202.324 258H56.3248C25.3969 258 0.324799 232.927 0.324799 202V56Z"></path>
<g filter="url(#filter0_d_1274_59311)">
<path stroke-linecap="round" stroke-width="5.37499" stroke="#00804B" d="M0.324829 189.469H255.637"></path>
</g>
<rect stroke-width="3" stroke="#19C77F" rx="6.87499" height="64.8124" width="13.75" y="97.9376" x="20.325"></rect>
<mask fill="white" id="path-5-inside-1_1274_59311">
<path d="M21.825 104.813C21.825 101.844 24.2315 99.4376 27.2 99.4376V99.4376C30.1686 99.4376 32.575 101.844 32.575 104.813V155.875C32.575 158.844 30.1686 161.25 27.2 161.25V161.25C24.2315 161.25 21.825 158.844 21.825 155.875V104.813Z"></path>
</mask>
<path fill-opacity="0.5" fill="black" d="M21.825 104.813C21.825 101.844 24.2315 99.4376 27.2 99.4376V99.4376C30.1686 99.4376 32.575 101.844 32.575 104.813V155.875C32.575 158.844 30.1686 161.25 27.2 161.25V161.25C24.2315 161.25 21.825 158.844 21.825 155.875V104.813Z"></path>
<path mask="url(#path-5-inside-1_1274_59311)" fill="#1B271D" d="M19.825 104.813C19.825 100.74 23.1269 97.4376 27.2 97.4376C31.2731 97.4376 34.575 100.74 34.575 104.813H30.575C30.575 102.949 29.064 101.438 27.2 101.438C25.3361 101.438 23.825 102.949 23.825 104.813H19.825ZM34.575 155.875C34.575 159.948 31.2731 163.25 27.2 163.25C23.1269 163.25 19.825 159.948 19.825 155.875H23.825C23.825 157.739 25.3361 159.25 27.2 159.25C29.064 159.25 30.575 157.739 30.575 155.875H34.575ZM27.2 163.25C23.1269 163.25 19.825 159.948 19.825 155.875V104.813C19.825 100.74 23.1269 97.4376 27.2 97.4376V101.438C25.3361 101.438 23.825 102.949 23.825 104.813V155.875C23.825 157.739 25.3361 159.25 27.2 159.25V163.25ZM27.2 97.4376C31.2731 97.4376 34.575 100.74 34.575 104.813V155.875C34.575 159.948 31.2731 163.25 27.2 163.25V159.25C29.064 159.25 30.575 157.739 30.575 155.875V104.813C30.575 102.949 29.064 101.438 27.2 101.438V97.4376Z"></path>
<rect stroke-width="3" stroke="#19C77F" rx="6.87499" height="64.8124" width="13.75" y="97.9376" x="42.075"></rect>
<mask fill="white" id="path-8-inside-2_1274_59311">
<path d="M43.575 104.813C43.575 101.844 45.9815 99.4376 48.95 99.4376V99.4376C51.9185 99.4376 54.325 101.844 54.325 104.813V155.875C54.325 158.844 51.9185 161.25 48.95 161.25V161.25C45.9815 161.25 43.575 158.844 43.575 155.875V104.813Z"></path>
</mask>
<path fill-opacity="0.5" fill="black" d="M43.575 104.813C43.575 101.844 45.9815 99.4376 48.95 99.4376V99.4376C51.9185 99.4376 54.325 101.844 54.325 104.813V155.875C54.325 158.844 51.9185 161.25 48.95 161.25V161.25C45.9815 161.25 43.575 158.844 43.575 155.875V104.813Z"></path>
<path mask="url(#path-8-inside-2_1274_59311)" fill="#1B271D" d="M41.575 104.813C41.575 100.74 44.8769 97.4376 48.95 97.4376C53.0231 97.4376 56.325 100.74 56.325 104.813H52.325C52.325 102.949 50.814 101.438 48.95 101.438C47.086 101.438 45.575 102.949 45.575 104.813H41.575ZM56.325 155.875C56.325 159.948 53.0231 163.25 48.95 163.25C44.8769 163.25 41.575 159.948 41.575 155.875H45.575C45.575 157.739 47.086 159.25 48.95 159.25C50.814 159.25 52.325 157.739 52.325 155.875H56.325ZM48.95 163.25C44.8769 163.25 41.575 159.948 41.575 155.875V104.813C41.575 100.74 44.8769 97.4376 48.95 97.4376V101.438C47.086 101.438 45.575 102.949 45.575 104.813V155.875C45.575 157.739 47.086 159.25 48.95 159.25V163.25ZM48.95 97.4376C53.0231 97.4376 56.325 100.74 56.325 104.813V155.875C56.325 159.948 53.0231 163.25 48.95 163.25V159.25C50.814 159.25 52.325 157.739 52.325 155.875V104.813C52.325 102.949 50.814 101.438 48.95 101.438V97.4376Z"></path>
<rect stroke-width="3" stroke="#19C77F" rx="6.87499" height="64.8124" width="13.75" y="97.9376" x="63.825"></rect>
<mask fill="white" id="path-11-inside-3_1274_59311">
<path d="M65.325 104.813C65.325 101.844 67.7315 99.4376 70.7 99.4376V99.4376C73.6685 99.4376 76.075 101.844 76.075 104.813V155.875C76.075 158.844 73.6685 161.25 70.7 161.25V161.25C67.7315 161.25 65.325 158.844 65.325 155.875V104.813Z"></path>
</mask>
<path fill-opacity="0.5" fill="black" d="M65.325 104.813C65.325 101.844 67.7315 99.4376 70.7 99.4376V99.4376C73.6685 99.4376 76.075 101.844 76.075 104.813V155.875C76.075 158.844 73.6685 161.25 70.7 161.25V161.25C67.7315 161.25 65.325 158.844 65.325 155.875V104.813Z"></path>
<path mask="url(#path-11-inside-3_1274_59311)" fill="#1B271D" d="M63.325 104.813C63.325 100.74 66.6269 97.4376 70.7 97.4376C74.7731 97.4376 78.075 100.74 78.075 104.813H74.075C74.075 102.949 72.564 101.438 70.7 101.438C68.836 101.438 67.325 102.949 67.325 104.813H63.325ZM78.075 155.875C78.075 159.948 74.7731 163.25 70.7 163.25C66.6269 163.25 63.325 159.948 63.325 155.875H67.325C67.325 157.739 68.836 159.25 70.7 159.25C72.564 159.25 74.075 157.739 74.075 155.875H78.075ZM70.7 163.25C66.6269 163.25 63.325 159.948 63.325 155.875V104.813C63.325 100.74 66.6269 97.4376 70.7 97.4376V101.438C68.836 101.438 67.325 102.949 67.325 104.813V155.875C67.325 157.739 68.836 159.25 70.7 159.25V163.25ZM70.7 97.4376C74.7731 97.4376 78.075 100.74 78.075 104.813V155.875C78.075 159.948 74.7731 163.25 70.7 163.25V159.25C72.564 159.25 74.075 157.739 74.075 155.875V104.813C74.075 102.949 72.564 101.438 70.7 101.438V97.4376Z"></path>
<rect stroke-width="3" stroke="#19C77F" rx="6.87499" height="64.8124" width="13.75" y="97.9376" x="85.575"></rect>
<mask fill="white" id="path-14-inside-4_1274_59311">
<path d="M87.075 104.813C87.075 101.844 89.4815 99.4376 92.45 99.4376V99.4376C95.4185 99.4376 97.825 101.844 97.825 104.813V155.875C97.825 158.844 95.4185 161.25 92.45 161.25V161.25C89.4815 161.25 87.075 158.844 87.075 155.875V104.813Z"></path>
</mask>
<path fill-opacity="0.5" fill="black" d="M87.075 104.813C87.075 101.844 89.4815 99.4376 92.45 99.4376V99.4376C95.4185 99.4376 97.825 101.844 97.825 104.813V155.875C97.825 158.844 95.4185 161.25 92.45 161.25V161.25C89.4815 161.25 87.075 158.844 87.075 155.875V104.813Z"></path>
<path mask="url(#path-14-inside-4_1274_59311)" fill="#1B271D" d="M85.075 104.813C85.075 100.74 88.3769 97.4376 92.45 97.4376C96.5231 97.4376 99.825 100.74 99.825 104.813H95.825C95.825 102.949 94.314 101.438 92.45 101.438C90.586 101.438 89.075 102.949 89.075 104.813H85.075ZM99.825 155.875C99.825 159.948 96.5231 163.25 92.45 163.25C88.3769 163.25 85.075 159.948 85.075 155.875H89.075C89.075 157.739 90.586 159.25 92.45 159.25C94.314 159.25 95.825 157.739 95.825 155.875H99.825ZM92.45 163.25C88.3769 163.25 85.075 159.948 85.075 155.875V104.813C85.075 100.74 88.3769 97.4376 92.45 97.4376V101.438C90.586 101.438 89.075 102.949 89.075 104.813V155.875C89.075 157.739 90.586 159.25 92.45 159.25V163.25ZM92.45 97.4376C96.5231 97.4376 99.825 100.74 99.825 104.813V155.875C99.825 159.948 96.5231 163.25 92.45 163.25V159.25C94.314 159.25 95.825 157.739 95.825 155.875V104.813C95.825 102.949 94.314 101.438 92.45 101.438V97.4376Z"></path>
<rect stroke-width="2.6875" stroke="#19C77F" fill="#303030" rx="21.5" height="42.9999" width="42.9999" y="108.843" x="187.106"></rect>
<mask fill="white" id="path-17-inside-5_1274_59311">
<path d="M196.512 130.343C196.512 123.664 201.927 118.25 208.606 118.25V118.25C215.285 118.25 220.7 123.664 220.7 130.343V130.343C220.7 137.022 215.285 142.437 208.606 142.437V142.437C201.927 142.437 196.512 137.022 196.512 130.343V130.343Z"></path>
</mask>
<path fill="#83FF49" d="M196.512 130.343C196.512 123.664 201.927 118.25 208.606 118.25V118.25C215.285 118.25 220.7 123.664 220.7 130.343V130.343C220.7 137.022 215.285 142.437 208.606 142.437V142.437C201.927 142.437 196.512 137.022 196.512 130.343V130.343Z"></path>
<path mask="url(#path-17-inside-5_1274_59311)" fill="#00A05E" d="M194.512 130.343C194.512 122.559 200.822 116.25 208.606 116.25C216.39 116.25 222.7 122.559 222.7 130.343H218.7C218.7 124.769 214.181 120.25 208.606 120.25C203.031 120.25 198.512 124.769 198.512 130.343H194.512ZM222.7 130.343C222.7 138.127 216.39 144.437 208.606 144.437C200.822 144.437 194.512 138.127 194.512 130.343H198.512C198.512 135.918 203.031 140.437 208.606 140.437C214.181 140.437 218.7 135.918 218.7 130.343H222.7ZM208.606 144.437C200.822 144.437 194.512 138.127 194.512 130.343C194.512 122.559 200.822 116.25 208.606 116.25V120.25C203.031 120.25 198.512 124.769 198.512 130.343C198.512 135.918 203.031 140.437 208.606 140.437V144.437ZM208.606 116.25C216.39 116.25 222.7 122.559 222.7 130.343C222.7 138.127 216.39 144.437 208.606 144.437V140.437C214.181 140.437 218.7 135.918 218.7 130.343C218.7 124.769 214.181 120.25 208.606 120.25V116.25Z"></path>
<g filter="url(#filter1_d_1274_59311)">
<path stroke-linecap="round" stroke-width="5.37499" stroke="#00804B" d="M0.324799 70.0004H255.637"></path>
</g>
<path fill-opacity="0.2" fill="black" d="M0.474823 184.877V202.375C0.474823 233.303 25.5469 258.375 56.4748 258.375H202.475C233.403 258.375 258.475 233.303 258.475 202.375V184.877C258.475 215.805 233.403 240.877 202.475 240.877H56.4748C25.5469 240.877 0.474823 215.805 0.474823 184.877Z" clip-rule="evenodd" fill-rule="evenodd"></path>
<path fill-opacity="0.3" fill="white" d="M56.4739 0.375244C25.5459 0.375244 0.473877 25.4473 0.473877 56.3752V57.8511C3.49831 29.7767 27.271 7.91797 56.149 7.91797H202.474C233.402 7.91797 258.474 32.99 258.474 63.918V56.3752C258.474 25.4473 233.402 0.375244 202.474 0.375244H56.4739Z" clip-rule="evenodd" fill-rule="evenodd"></path>
</g>
<defs>
<filter color-interpolation-filters="sRGB" filterUnits="userSpaceOnUse" height="8.375" width="260.687" y="186.781" x="-2.36267" id="filter0_d_1274_59311">
<feFlood result="BackgroundImageFix" flood-opacity="0"></feFlood>
<feColorMatrix result="hardAlpha" values="0 0 0 0 0 0 0 0 0 0 0 0 0 0 0 0 0 0 127 0" type="matrix" in="SourceAlpha"></feColorMatrix>
<feOffset dy="3"></feOffset>
<feComposite operator="out" in2="hardAlpha"></feComposite>
<feColorMatrix values="0 0 0 0 0.0980392 0 0 0 0 0.780392 0 0 0 0 0.498039 0 0 0 1 0" type="matrix"></feColorMatrix>
<feBlend result="effect1_dropShadow_1274_59311" in2="BackgroundImageFix" mode="normal"></feBlend>
<feBlend result="shape" in2="effect1_dropShadow_1274_59311" in="SourceGraphic" mode="normal"></feBlend>
</filter>
<filter color-interpolation-filters="sRGB" filterUnits="userSpaceOnUse" height="8.375" width="260.687" y="67.3129" x="-2.3627" id="filter1_d_1274_59311">
<feFlood result="BackgroundImageFix" flood-opacity="0"></feFlood>
<feColorMatrix result="hardAlpha" values="0 0 0 0 0 0 0 0 0 0 0 0 0 0 0 0 0 0 127 0" type="matrix" in="SourceAlpha"></feColorMatrix>
<feOffset dy="3"></feOffset>
<feComposite operator="out" in2="hardAlpha"></feComposite>
<feColorMatrix values="0 0 0 0 0.0980392 0 0 0 0 0.780392 0 0 0 0 0.498039 0 0 0 1 0" type="matrix"></feColorMatrix>
<feBlend result="effect1_dropShadow_1274_59311" in2="BackgroundImageFix" mode="normal"></feBlend>
<feBlend result="shape" in2="effect1_dropShadow_1274_59311" in="SourceGraphic" mode="normal"></feBlend>
</filter>
<clipPath id="clip0_1274_59311">
<rect fill="white" rx="56" height="258" width="258" y="0.000366211" x="0.324799"></rect>
</clipPath>
</defs>
</svg>
