<svg xmlns="http://www.w3.org/2000/svg" fill="none" viewBox="0 0 259 259" height="259" width="259">
<path fill="white" d="M0.325592 56C0.325592 25.0721 25.3976 0 56.3256 0L202.325 0C233.253 0 258.325 25.0721 258.325 56V115.562V201.999C258.325 232.927 233.253 258 202.325 258H56.3256C25.3977 258 0.325592 232.927 0.325592 202V56Z"></path>
<path fill="#CF74A2" d="M0.325195 56.0005C0.325195 25.0725 25.3973 0.000488281 56.3252 0.000488281H202.325C233.253 0.000488281 258.325 25.0726 258.325 56.0005V75.788H0.325195V56.0005Z"></path>
<path fill="#CBCBCB" d="M80.2745 59.9655L92.6549 25.5676H100.575L112.955 59.9655H106.061L103.389 52.0221H89.8401L87.1446 59.9655H80.2745ZM91.4145 47.0842H101.791L97.9983 35.8727C97.5689 34.5687 97.1475 33.0897 96.734 31.4358H96.4955C96.0661 33.0897 95.6367 34.5687 95.2073 35.8727L91.4145 47.0842Z"></path>
<path fill="#CBCBCB" d="M118.966 59.9655V25.5915H131.991C134.583 25.5915 136.777 26.0209 138.574 26.8796C140.371 27.7225 141.731 28.9311 142.654 30.5055C143.576 32.0799 144.037 33.9087 144.037 35.992C144.037 38.0911 143.576 39.9438 142.654 41.55C141.747 43.1562 140.379 44.3966 138.551 45.2713C136.738 46.1459 134.551 46.5833 131.991 46.5833H125.216V59.9655H118.966ZM131.442 41.4069C132.794 41.4069 133.939 41.1922 134.877 40.7628C135.831 40.3334 136.563 39.7212 137.072 38.926C137.596 38.1309 137.859 37.1529 137.859 35.992C137.859 34.8629 137.604 33.9087 137.095 33.1294C136.587 32.3502 135.847 31.7618 134.877 31.3642C133.923 30.9667 132.778 30.7679 131.442 30.7679H125.216V41.4069H131.442Z"></path>
<path fill="#CBCBCB" d="M150.645 59.9655V25.5676H165.339C167.645 25.5676 169.617 25.9572 171.255 26.7365C172.893 27.5157 174.141 28.6289 175 30.0761C175.859 31.5233 176.288 33.2169 176.288 35.1571C176.288 36.5247 176.042 37.7651 175.549 38.8783C175.072 39.9915 174.364 40.9218 173.426 41.6693C172.487 42.4008 171.366 42.9177 170.062 43.2198V43.4106C171.907 43.8082 173.29 44.6829 174.213 46.0346C175.151 47.3864 175.652 49.247 175.716 51.6165C175.716 51.8233 175.716 52.0221 175.716 52.2129C175.732 52.3878 175.747 52.5787 175.763 52.7854C175.827 54.5029 175.954 55.8785 176.145 56.9122C176.336 57.93 176.582 58.7728 176.884 59.4407V59.9655H170.468C170.197 59.3135 169.983 58.5263 169.824 57.604C169.665 56.6816 169.529 55.4889 169.418 54.0258C169.402 53.7555 169.386 53.4772 169.37 53.1909C169.354 52.9047 169.339 52.6105 169.323 52.3083C169.275 50.7657 169.028 49.5571 168.583 48.6824C168.154 47.8078 167.518 47.1955 166.675 46.8457C165.832 46.4799 164.735 46.297 163.383 46.297H157.085V59.9655H150.645ZM164.242 41.0968C165.387 41.0968 166.373 40.9059 167.2 40.5243C168.042 40.1426 168.694 39.5622 169.156 38.7829C169.633 37.9878 169.871 37.0256 169.871 35.8965C169.871 34.7515 169.625 33.7974 169.132 33.034C168.655 32.2707 167.995 31.7141 167.152 31.3642C166.325 31.0144 165.355 30.8394 164.242 30.8394H157.085V41.0968H164.242Z"></path>
<path fill="white" d="M80.2745 57.9655L92.6549 23.5676H100.575L112.955 57.9655H106.061L103.389 50.0221H89.8401L87.1446 57.9655H80.2745ZM91.4145 45.0842H101.791L97.9983 33.8727C97.5689 32.5687 97.1475 31.0897 96.734 29.4358H96.4955C96.0661 31.0897 95.6367 32.5687 95.2073 33.8727L91.4145 45.0842Z"></path>
<path fill="white" d="M118.966 57.9655V23.5915H131.991C134.583 23.5915 136.777 24.0209 138.574 24.8796C140.371 25.7225 141.731 26.9311 142.654 28.5055C143.576 30.0799 144.037 31.9087 144.037 33.992C144.037 36.0911 143.576 37.9438 142.654 39.55C141.747 41.1562 140.379 42.3966 138.551 43.2713C136.738 44.1459 134.551 44.5833 131.991 44.5833H125.216V57.9655H118.966ZM131.442 39.4069C132.794 39.4069 133.939 39.1922 134.877 38.7628C135.831 38.3334 136.563 37.7212 137.072 36.926C137.596 36.1309 137.859 35.1529 137.859 33.992C137.859 32.8629 137.604 31.9087 137.095 31.1294C136.587 30.3502 135.847 29.7618 134.877 29.3642C133.923 28.9667 132.778 28.7679 131.442 28.7679H125.216V39.4069H131.442Z"></path>
<path fill="white" d="M150.645 57.9655V23.5676H165.339C167.645 23.5676 169.617 23.9572 171.255 24.7365C172.893 25.5157 174.141 26.6289 175 28.0761C175.859 29.5233 176.288 31.2169 176.288 33.1571C176.288 34.5247 176.042 35.7651 175.549 36.8783C175.072 37.9915 174.364 38.9218 173.426 39.6693C172.487 40.4008 171.366 40.9177 170.062 41.2198V41.4106C171.907 41.8082 173.29 42.6829 174.213 44.0346C175.151 45.3864 175.652 47.247 175.716 49.6165C175.716 49.8233 175.716 50.0221 175.716 50.2129C175.732 50.3878 175.747 50.5787 175.763 50.7854C175.827 52.5029 175.954 53.8785 176.145 54.9122C176.336 55.93 176.582 56.7728 176.884 57.4407V57.9655H170.468C170.197 57.3135 169.983 56.5263 169.824 55.604C169.665 54.6816 169.529 53.4889 169.418 52.0258C169.402 51.7555 169.386 51.4772 169.37 51.1909C169.354 50.9047 169.339 50.6105 169.323 50.3083C169.275 48.7657 169.028 47.5571 168.583 46.6824C168.154 45.8078 167.518 45.1955 166.675 44.8457C165.832 44.4799 164.735 44.297 163.383 44.297H157.085V57.9655H150.645ZM164.242 39.0968C165.387 39.0968 166.373 38.9059 167.2 38.5243C168.042 38.1426 168.694 37.5622 169.156 36.7829C169.633 35.9878 169.871 35.0256 169.871 33.8965C169.871 32.7515 169.625 31.7974 169.132 31.034C168.655 30.2707 167.995 29.7141 167.152 29.3642C166.325 29.0144 165.355 28.8394 164.242 28.8394H157.085V39.0968H164.242Z"></path>
<path fill="#80385C" d="M93.9755 216.293C84.7848 216.293 76.9547 214.136 70.4852 209.823C64.0158 205.459 59.1123 199.169 55.7749 190.954C52.4375 182.739 50.7688 172.829 50.7688 161.225V156.912C50.7688 145.257 52.4375 135.322 55.7749 127.107C59.1123 118.84 63.9901 112.55 70.4082 108.237C76.8777 103.873 84.7077 101.691 93.8985 101.691C103.089 101.691 110.894 103.847 117.312 108.16C123.73 112.473 128.582 118.763 131.868 127.03C135.154 135.296 136.797 145.257 136.797 156.912V161.225C136.797 172.829 135.154 182.764 131.868 191.031C128.582 199.246 123.73 205.51 117.312 209.823C110.945 214.136 103.166 216.293 93.9755 216.293ZM94.0525 199.118C99.033 199.118 103.166 197.757 106.452 195.036C109.79 192.263 112.28 188.181 113.923 182.79C115.617 177.348 116.465 170.621 116.465 162.612V155.526C116.465 147.516 115.617 140.79 113.923 135.347C112.229 129.905 109.713 125.797 106.375 123.025C103.089 120.252 98.9559 118.866 93.9755 118.866C89.0464 118.866 84.8875 120.252 81.4987 123.025C78.1099 125.746 75.5427 129.828 73.797 135.27C72.1026 140.713 71.2554 147.465 71.2554 155.526V162.612C71.2554 170.57 72.1283 177.271 73.874 182.713C75.6197 188.104 78.1613 192.186 81.4987 194.959C84.8875 197.731 89.0721 199.118 94.0525 199.118Z"></path>
<path fill="#80385C" d="M181.467 214.521V128.339H180.62C177.077 131.625 172.995 134.244 168.374 136.195C163.753 138.094 158.644 139.327 153.048 139.891V122.563C157.566 121.946 161.776 120.74 165.679 118.943C169.632 117.094 173.149 114.861 176.23 112.242C179.362 109.572 182.058 106.646 184.317 103.462H201.492V214.521H181.467Z"></path>
<path fill="#CF74A2" d="M93.9755 212.293C84.7848 212.293 76.9547 210.136 70.4852 205.823C64.0158 201.459 59.1123 195.169 55.7749 186.954C52.4375 178.739 50.7688 168.829 50.7688 157.225V152.912C50.7688 141.257 52.4375 131.322 55.7749 123.107C59.1123 114.84 63.9901 108.55 70.4082 104.237C76.8777 99.8731 84.7077 97.6909 93.8985 97.6909C103.089 97.6909 110.894 99.8474 117.312 104.16C123.73 108.473 128.582 114.763 131.868 123.03C135.154 131.296 136.797 141.257 136.797 152.912V157.225C136.797 168.829 135.154 178.764 131.868 187.031C128.582 195.246 123.73 201.51 117.312 205.823C110.945 210.136 103.166 212.293 93.9755 212.293ZM94.0525 195.118C99.033 195.118 103.166 193.757 106.452 191.036C109.79 188.263 112.28 184.181 113.923 178.79C115.617 173.348 116.465 166.621 116.465 158.612V151.526C116.465 143.516 115.617 136.79 113.923 131.347C112.229 125.905 109.713 121.797 106.375 119.025C103.089 116.252 98.9559 114.866 93.9755 114.866C89.0464 114.866 84.8875 116.252 81.4987 119.025C78.1099 121.746 75.5427 125.828 73.797 131.27C72.1026 136.713 71.2554 143.465 71.2554 151.526V158.612C71.2554 166.57 72.1283 173.271 73.874 178.713C75.6197 184.104 78.1613 188.186 81.4987 190.959C84.8875 193.731 89.0721 195.118 94.0525 195.118Z"></path>
<path fill="#CF74A2" d="M181.467 210.521V124.339H180.62C177.077 127.625 172.995 130.244 168.374 132.195C163.753 134.094 158.644 135.327 153.048 135.891V118.563C157.566 117.946 161.776 116.74 165.679 114.943C169.632 113.094 173.149 110.861 176.23 108.242C179.362 105.572 182.058 102.646 184.317 99.4623H201.492V210.521H181.467Z"></path>
<path fill-opacity="0.2" fill="black" d="M0.475616 184.877V202.375C0.475616 233.303 25.5477 258.375 56.4756 258.375H202.476C233.404 258.375 258.476 233.303 258.476 202.376V184.877C258.476 215.805 233.404 240.877 202.476 240.877H56.4756C25.5477 240.877 0.475616 215.805 0.475616 184.877Z" clip-rule="evenodd" fill-rule="evenodd"></path>
<path fill-opacity="0.3" fill="white" d="M56.4747 0.375488C25.5467 0.375488 0.47467 25.4475 0.47467 56.3755V57.8514C3.4991 29.7769 27.2718 7.91821 56.1498 7.91821H202.475C233.403 7.91821 258.475 32.9903 258.475 63.9182V56.3755C258.475 25.4475 233.403 0.375488 202.475 0.375488H56.4747Z" clip-rule="evenodd" fill-rule="evenodd"></path>
</svg>
