<svg id="Layer_1" enable-background="new 0 0 100 100" height="512" viewBox="0 0 100 100" width="512" xmlns="http://www.w3.org/2000/svg"><g id="_x34_4.Google_Search"><path d="m42.237 20.749c11.844 0 21.48 9.638 21.48 21.486v-.88h10.731c-.46-17.074-14.256-30.871-31.332-31.332v10.726z" fill="#e74339"/><path d="m67.957 55.14h10.753v36.387h-10.753z" fill="#4489f1" transform="matrix(-.707 .707 -.707 -.707 177.043 73.335)"/><path d="m74.448 41.354h-10.731v.88c-.001 11.846-9.637 21.483-21.482 21.483h.88v10.731c17.074-.46 30.871-14.258 31.332-31.334.008-.293.022-.584.022-.878v-.002-.878h-.021z" fill="#4489f1"/><path d="m42.235 63.717c-11.844-.001-21.481-9.638-21.482-21.482v.878l-.88.002h-9.85c.462 17.074 14.259 30.87 31.332 31.332.293.008.585.022.88.022h.002.878v-.022-10.73z" fill="#38a856"/><path d="m20.753 43.113v-.878-.002c0-11.845 9.637-21.483 21.482-21.484h.002.878v-10.727-.022h-.88c-.295 0-.587.014-.88.022-17.075.463-30.871 14.258-31.333 31.332-.008.294-.022.586-.022.881v.88h.022 9.85z" fill="#fabc2d"/></g></svg>